<svg xmlns="http://www.w3.org/2000/svg" width="24" height="24" viewBox="0 0 256 256" fill="none">
	<path fill="currentColor" fill-rule="evenodd" d="M139.348 11.834C141.108 8.51523 145.336 6.82298 148.672 8.92871C151.935 10.989 153.402 15.46 154.298 19.0186C162.725 20.1811 173.886 24.7367 180.927 29.4521C202.943 44.1988 210.228 62.9807 214.865 87.8965C215.376 90.58 215.804 93.2786 216.149 95.9883C216.375 97.8709 216.626 100.924 217.004 102.691L217.036 102.841C219.077 101.659 221.183 100.318 223.188 99.0713C224.228 98.4042 225.53 97.5083 226.866 96.6943C227.033 96.5926 227.201 96.4921 227.368 96.3936C227.871 96.0977 228.375 95.819 228.867 95.5732C229.195 95.4094 229.518 95.2603 229.833 95.1309C230.147 95.0015 230.453 94.892 230.747 94.8066C241.327 91.7321 244.518 103.122 242.272 111.141C240.127 118.805 235.599 124.62 229.296 129.366C225.825 131.999 222.856 133.513 219.065 135.571C218.871 135.837 218.993 139.925 218.977 140.657C218.464 163.671 218.824 191.914 201.77 209.613C200.936 210.683 195.617 214.383 195.317 215.535C192.288 227.117 191.042 244.166 176.708 247.171C172.963 247.958 169.355 247.163 166.09 245.679C156.445 241.291 152.994 229.443 149.867 220.465C137.288 221.244 124.698 221.851 112.102 222.287C110.745 228.85 109.426 235.606 105.304 241.09C99.5842 248.701 88.3997 250.328 80.8623 244.452C73.4124 238.645 71.5373 228.316 70.3037 219.477C65.9113 218.29 62.1382 216.494 58.9238 213.211C43.5669 197.519 40.999 164.788 40.8135 144.327C39.9306 144.051 39.0569 143.744 38.1953 143.406C27.9394 139.405 18.7393 133.527 13.96 122.973C11.3008 117.1 10.3576 106.784 17.6592 103.544C23.0754 101.14 29.3215 106.059 33.7646 108.465C36.3585 109.869 39.1953 111.182 42.0088 112.383C43.2298 101.752 44.7651 91.968 48.1934 81.7754C56.5917 56.8064 73.8944 38.5704 97.3086 26.9619C96.2228 23.5129 96.1135 19.6319 98.9941 17.0547C104.245 12.3571 109.491 17.5442 112.801 21.3008C114.659 20.7139 116.489 20.3226 118.388 19.915C118.042 18.3592 117.913 16.838 118.243 15.2656C118.666 13.1675 119.937 11.3368 121.755 10.207C127.878 6.41192 131.688 13.6669 134.112 17.9375L138.306 17.71C138.222 15.5289 138.288 13.8316 139.348 11.834ZM82.4852 107.418C81.8798 115.32 85.2736 122.005 90.216 128.045C91.4236 129.522 96.235 134.448 97.8459 135.061C104.583 141.077 122.309 145.714 131.463 146.459C152.911 148.205 178.089 145.332 195.728 131.952C198.556 129.808 204.15 123.161 204.508 119.567C207.419 114.355 205.384 93.2652 203.714 87.1002C203.042 84.01 202.173 77.994 199.475 76.3154C196.819 74.6645 191.162 74.7608 188.083 75.0108C175.556 76.0282 162.579 78.675 150.255 81.1143C134.24 84.3002 118.248 87.6106 102.284 91.0454C93.9165 92.8997 83.3083 97.6046 82.4852 107.418ZM93.9773 63.3803C89.87 63.744 86.8193 65.174 84.1454 68.4172C82.6357 70.2483 81.1793 72.7109 81.296 75.1604C81.4801 79.0253 85.9139 78.8732 87.4981 76.0958C88.8776 73.6772 89.2789 72.19 91.7637 70.671L92.0173 70.579C95.8394 69.225 98.4097 70.6501 100.865 73.5645C103.593 76.8015 107.928 73.4137 106.588 70.4796C104.615 66.1597 98.4931 63.0609 93.9773 63.3803ZM166.9 52.3263C164 52.9306 162.149 55.7826 162.777 58.677C163.406 61.5715 166.273 63.3987 169.162 62.746C172.017 62.1008 173.819 59.2746 173.198 56.4142C172.576 53.5538 169.765 51.7292 166.9 52.3263Z"/>
</svg>
